# xmcd
#
# Track frame offsets:
#	150
#	9970
#	18565
#	30026
#	43801
#	57037
#	69141
#	80336
#	94667
#	108846
#	120797
#	130442
#	138355
#	150678
#	159032
#	167263
#	180468
#	192554
#	203925
#	217359
#
# Disc length: 3083 seconds
#
# Revision: 0
# Processed by: cddbd v1.5.2PL0 Copyright (c) Steve Scherf et al.
# Submitted via: EasyCDDAExtractor 15.3.0.1
#
DISCID=f40c0914
DTITLE=Dean Martin - Dino_The Golden Years Cd3
DYEAR=1900
DGENRE=Vocal
TTITLE0=Ramblin' Rose
TTITLE1=You're Nobody 'Till Somebody Loves You
TTITLE2=I Don't Know Why (I Just Do)
TTITLE3=Blue Moon
TTITLE4=Smile
TTITLE5=Corrine Corrina
TTITLE6=Born To Lose
TTITLE7=Release Me
TTITLE8=My Heart Cries For You
TTITLE9=It Keeps Right On A-Hurtin'
TTITLE10=Wallpaper Roses
TTITLE11=Hey Good Looking
TTITLE12=What A Difference A Day Made
TTITLE13=Guess Who
TTITLE14=South Of The Border
TTITLE15=The Poor Peaple Of Paris
TTITLE16=The Things We Did Last Summer
TTITLE17=In A Little Spanish Town
TTITLE18=I Love Paris
TTITLE19=La Paloma
EXTD=
EXTT0=
EXTT1=
EXTT2=
EXTT3=
EXTT4=
EXTT5=
EXTT6=
EXTT7=
EXTT8=
EXTT9=
EXTT10=
EXTT11=
EXTT12=
EXTT13=
EXTT14=
EXTT15=
EXTT16=
EXTT17=
EXTT18=
EXTT19=
PLAYORDER=
